<svg xmlns="http://www.w3.org/2000/svg" xmlns:xlink="http://www.w3.org/1999/xlink" viewBox="0 0 749.24 845.88"><defs><style>.cls-1{isolation:isolate;}.cls-2{fill:url(#Gradiente_sem_nome_137);}.cls-3{opacity:0.09;}.cls-10,.cls-11,.cls-12,.cls-3,.cls-8{mix-blend-mode:overlay;}.cls-4{fill:url(#Gradiente_sem_nome_198);}.cls-5{fill:url(#Gradiente_sem_nome_5);}.cls-6{opacity:0.8;mix-blend-mode:screen;fill:url(#Gradiente_sem_nome_71);}.cls-7{fill:url(#Gradiente_sem_nome_4);}.cls-8{opacity:0.17;}.cls-9{fill:url(#Gradiente_sem_nome_207);}.cls-10{opacity:0.1;}.cls-11{opacity:0.02;}.cls-12{opacity:0.3;}.cls-13{fill:url(#Gradiente_sem_nome_140);}.cls-14{fill:url(#Gradiente_sem_nome_93);}.cls-15{fill:#4d4d4d;}</style><linearGradient id="Gradiente_sem_nome_137" x1="361.7" y1="373.66" x2="402.76" y2="516.39" gradientUnits="userSpaceOnUse"><stop offset="0.01" stop-color="#009fe3"/><stop offset="1" stop-color="#0067c2"/></linearGradient><linearGradient id="Gradiente_sem_nome_198" x1="382.44" y1="496.85" x2="409.18" y2="556.27" gradientUnits="userSpaceOnUse"><stop offset="0.01" stop-color="#0090d7"/><stop offset="1" stop-color="#0067c2"/></linearGradient><linearGradient id="Gradiente_sem_nome_5" x1="255.39" y1="23.15" x2="538.03" y2="505.3" gradientUnits="userSpaceOnUse"><stop offset="0.01" stop-color="#009dd8"/><stop offset="0.26" stop-color="#0097d6"/><stop offset="0.6" stop-color="#0086cf"/><stop offset="0.99" stop-color="#006bc3"/><stop offset="1" stop-color="#006ac3"/></linearGradient><linearGradient id="Gradiente_sem_nome_71" x1="385.49" y1="495.56" x2="392.54" y2="519.23" gradientUnits="userSpaceOnUse"><stop offset="0" stop-color="#1d1d1b"/><stop offset="1"/></linearGradient><linearGradient id="Gradiente_sem_nome_4" x1="-126.84" y1="322.8" x2="651.76" y2="33.71" gradientUnits="userSpaceOnUse"><stop offset="0" stop-color="#0067c2"/><stop offset="1" stop-color="#4594d0"/></linearGradient><linearGradient id="Gradiente_sem_nome_207" x1="-1869.56" y1="1863.98" x2="2556.03" y2="-1380.77" gradientUnits="userSpaceOnUse"><stop offset="0" stop-color="#e19718"/><stop offset="0.37" stop-color="#e57720"/><stop offset="0.77" stop-color="#e85b26"/><stop offset="1" stop-color="#e95129"/></linearGradient><linearGradient id="Gradiente_sem_nome_140" x1="-2346.25" y1="-1186.53" x2="-2565.81" y2="-943.63" gradientTransform="translate(3275.65 -132.5) rotate(-35.58)" gradientUnits="userSpaceOnUse"><stop offset="0" stop-color="#0090d7"/><stop offset="1" stop-color="#0071b7"/></linearGradient><linearGradient id="Gradiente_sem_nome_93" x1="-2328.73" y1="-1195.58" x2="-2504.09" y2="-967.9" gradientTransform="translate(3275.65 -132.5) rotate(-35.58)" gradientUnits="userSpaceOnUse"><stop offset="0" stop-color="#3383c5"/><stop offset="1" stop-color="#0071b7"/></linearGradient></defs><g class="cls-1"><g id="Layer_2" data-name="Layer 2"><g id="OBJECT"><rect class="cls-2" x="357.42" y="449.31" width="69.21" height="59.56"/><path class="cls-3" d="M426.63,449.31v59.56H398.49c3.23-18.07,2.17-40.48.08-59.56Z"/><path class="cls-4" d="M446.17,518.21a15.84,15.84,0,0,1-3.79,10.42,12.19,12.19,0,0,1-9.16,4.31H350.87c-7.14,0-12.95-6.61-12.95-14.73a15.82,15.82,0,0,1,3.79-10.42,12.2,12.2,0,0,1,9.16-4.31h82.35C440.37,503.48,446.17,510.06,446.17,518.21Z"/><path class="cls-5" d="M695,108.71V403.85c0,25.12-20.7,45.46-46.23,45.46H135.33c-25.18,0-45.66-19.78-46.19-44.45,0-.34.11-9.74-.57-6.79,125.37,9.75,252.66-23.32,344.74-70.51,32.54-16.68,66.56-37.74,85.94-55.51C579.85,216.44,659.31,124.13,670,68.36a45.75,45.75,0,0,1,14.3,11.35A44.55,44.55,0,0,1,695,108.71Z"/><path class="cls-6" d="M443.15,517.58a12.74,12.74,0,0,1-3.58,8.88,12,12,0,0,1-8.65,3.68H353.17a12.41,12.41,0,0,1-12.23-12.56,12.78,12.78,0,0,1,3.58-8.89,12.08,12.08,0,0,1,8.65-3.67h77.75A12.39,12.39,0,0,1,443.15,517.58Z"/><path class="cls-7" d="M644.33,57.05s-93.86,166.82-236.7,236C339.81,326,218,356.17,149.59,352.3c-34.3-1.93-36.43.7-60.49-14.53V103.25c0-25.53,22.16-46.2,49.48-46.2Z"/><path class="cls-8" d="M697.18,54.94c-14.36,56.51-77,151.63-140.21,206.41l-7.31,6.38c-86.36,74.35-299.22,187.19-457.76,132a168.39,168.39,0,0,1-16.14-6.51,8.61,8.61,0,0,1,0-1c120.79,42.06,273.1-13.44,377-75.14,33.05-19.57,61.16-39.81,81.83-57.72C599.18,203.28,683.93,110.24,695.37,54,678.42,70.82,680.83,45.41,697.18,54.94Z"/><path class="cls-3" d="M644.33,57.05s-68,162.3-201.41,231.51c-63.37,32.88-175.64,69-239.54,65.16l-21.31-1.42C411.37,358,490.88,142.19,488.62,57.05Z"/><path class="cls-9" d="M697.18,54.94c-9,49-81.74,141.35-137.94,193.15l-.93.82C479.86,320.69,268,443.58,90,399.67c-149.54-36.93-86.26-92.78-.94-127l.44,58.72c49.52,26.43,174.35,2.95,263.17-28.81,30.25-10.85,62.64-26.71,87.45-40.88C569.92,187.64,641.83,57.05,641.83,57.05H577S643.32-17.88,688.11,4C706.18,12.84,700.12,39,697.18,54.94Z"/><path class="cls-10" d="M446.17,518.21a15.84,15.84,0,0,1-3.79,10.42,12.19,12.19,0,0,1-9.16,4.31H355.45c81.68,0,52.45-29.46,52.45-29.46h25.32C440.37,503.48,446.17,510.06,446.17,518.21Z"/><path class="cls-11" d="M273.45,404c-62.53,16.88-127.2,20.52-184.35-.87-114-42.7-61.91-102.73,0-131.89v35.26S64.56,446.2,273.45,404Z"/><path class="cls-10" d="M695.66,271.82c0,2-.85,18.42-10.6,41.69-12.69,30.27-40.53,72.05-101.57,108.39l-.09-2.4-.33-8.84-.24-6.48C682.43,350.33,695.05,275.85,695.66,271.82Z"/><path class="cls-12" d="M685.06,313.51c-12.69,30.27-40.53,72.05-101.57,108.39l-.09-2.4-.33-8.84C641.78,379.51,670.86,341.15,685.06,313.51Z"/><path class="cls-12" d="M737.61,273.31l.88,3.57,10.15,41.31L744,518.37a20.7,20.7,0,0,1-20.42,20.21l-115,1.45h-.49a21,21,0,0,1-4.86-.51,20.45,20.45,0,0,1-7.35-3.32C752.27,424.13,708.79,271.47,708.79,271.47l19.51-.24A20.61,20.61,0,0,1,737.61,273.31Z"/><path class="cls-12" d="M738.49,276.88l10.15,41.31L744,518.37a20.7,20.7,0,0,1-20.42,20.21l-115,1.45h-.49a21,21,0,0,1-4.86-.51c153.57-111.92,110.52-263,110.52-263l19.52-.24A19.59,19.59,0,0,1,738.49,276.88Z"/><path class="cls-13" d="M749.23,292.4l-.59,25.79-1.49,64.5-1.71,73.81-1,45.69L744,518.37a20.7,20.7,0,0,1-20.42,20.21l-4.58.06-52.84.66-6.68.08-24.65.31-26.27.34h-.49a20.76,20.76,0,0,1-20.94-19.92l-.71-19.23-1.79-47.83-1.16-31.16-.09-2.4-4.67-125.19a20.67,20.67,0,0,1,20.4-21.46l96.55-1.22,4.2-.05,5-.06,3.94,0,19.51-.24a20.67,20.67,0,0,1,20.93,21.17Z"/><path class="cls-14" d="M749.23,292.4l-3.87,167.41-.08,3.2L745.1,471l-.24,10.9-.13,5.37-.14,6.36L744,518.37a20.7,20.7,0,0,1-20.42,20.21l-30.09.38-70.16.89-14.77.18c35.49-26.16,60.31-53.64,77.37-80.69.81-1.28,1.6-2.54,2.36-3.82,3.76-6.18,7.1-12.35,10.09-18.47l.64-1.32c36-75,41.57-142.28,33.87-163.91l-4.61-.59A20.67,20.67,0,0,1,749.23,292.4Z"/><path class="cls-15" d="M162.09,679.13v22.46h-64a39.14,39.14,0,0,1-17.66-4.16A40.11,40.11,0,0,1,62.26,679a39.48,39.48,0,0,1-4.14-17.72V575H80.77v88.57A18,18,0,0,0,96.06,679Z"/><path class="cls-15" d="M298,575v62.3c0,32.3-24,60.06-56.05,63.65a63.34,63.34,0,0,1-70.57-62.78V575H194v62.47c0,20.89,15.51,38.91,36.29,41.09a40.7,40.7,0,0,0,45-40.39V575Z"/><path class="cls-15" d="M447.23,574.21V700.56H424.58v-80.5l-22.22,17-18.44,14.26L365.49,637l-22.23-17v80.5H320.62V574.21l22.61,17.33,40.69,31.22,40.7-31.22Z"/><path class="cls-15" d="M592.84,700.56H567.57L556,678,528.4,623.85,500.78,678l-11.55,22.56H464L475.51,678,528.4,574.21,581.29,678Z"/><path class="cls-15" d="M614.28,632.88a40.72,40.72,0,0,0,40.43,45H718v22.64H655.4c-32.29,0-60-23.94-63.64-56A63.37,63.37,0,0,1,654.65,574H718v22.64H655.37C634.48,596.59,616.47,612.1,614.28,632.88Z"/><path class="cls-15" d="M256,773a44.69,44.69,0,0,0,12.44,0c-.52,5.91-1.15,12.2-1.15,18.12,0,9.85-.46,20.76.44,30.49,1.13,12.33,7,18.4,19.68,18.4,19.63,0,22.45-11.33,22.45-28.31V794.16A152.36,152.36,0,0,0,308.75,773a24.75,24.75,0,0,0,9.2,0c-1.24,8.18-1.36,17.15-1.36,25.42V816.3c0,20.52-11.06,29.48-30.92,29.48-22.52,0-28.48-10-28.48-30.4V791A127.24,127.24,0,0,0,256,773Zm179.12,71.4q3.69-18.74,6.27-37t4.1-35.77h4q8.13,16.4,15.4,30.41t13.85,26q7-12.69,14.13-26.76t14.6-29.69h4q1.56,19,3.73,37.11T520,844.42a21.88,21.88,0,0,0-11.93,0q-.53-13-1.75-26.29t-3.17-26.92l-14.95,29.36a203.52,203.52,0,0,0-10.66,23.85,3.87,3.87,0,0,0-2.56,0q-6.27-13.59-13-26.71t-13.73-25.78l-3,28.93c-.8,7.86-1.28,15.67-1.48,23.56a18.72,18.72,0,0,0-8.68,0Zm-51.42-15.68.93-.21c2.95,7.86,9.11,12.44,17.58,12.44,8.77,0,15.36-4.9,15.36-14.1,0-9.59-8-12.56-15.77-15.59-9.76-3.81-18.62-7.83-18.62-19.65,0-13.72,9.88-20.07,22.7-20.07a36.07,36.07,0,0,1,17.6,4.48l.05.05a39,39,0,0,0-3.35,10.21h-1c-1.48-7.47-7.07-10.66-14.34-10.66-7.52,0-13.17,4.42-13.17,12.24,0,8.57,8.34,11.47,15.15,14,10.49,3.85,19.87,7.87,19.87,20.5,0,14.66-11.95,23.52-25.89,23.52-6.81,0-13.77-1.54-19.06-6a47,47,0,0,0,2-11.1ZM343.8,809.09c0,11.73-.18,23.63.62,35.33a33.81,33.81,0,0,0-12.12,0c1.05-11.85,1.36-23.75,1.36-35.65A346.81,346.81,0,0,0,332.3,773c6.72.1,13.45.21,20.17.21q9.25,0,18.51-.21a22.71,22.71,0,0,0,0,7.22,85.33,85.33,0,0,0-17.23-1.78H343.9c-.11,8.5-.1,17-.1,25.5h10.56a126.27,126.27,0,0,0,14.53-.94,43.25,43.25,0,0,0-.06,7c-4.85-.45-9.89-.94-14.77-.94Z"/></g></g></g></svg>